<svg class="customer-service-icon" width="80px" height="80px" viewBox="0 0 80 80" version="1.1" xmlns="http://www.w3.org/2000/svg" xmlns:xlink="http://www.w3.org/1999/xlink">
    <title>Customer Service Icon</title>
    <g id="desktop" stroke="none" stroke-width="1" fill="none" fill-rule="evenodd">
        <g id="homepage-2" transform="translate(-305.000000, -1836.000000)">
            <g id="Group-35" transform="translate(68.000000, 1442.000000)">
                <g id="Group-58" transform="translate(237.000000, 394.000000)">
                    <g id="Group-33">
                        <circle id="Oval" fill="#3A337C" cx="40" cy="40" r="40"></circle>
                        <circle id="Oval-Copy-2" fill="#F6F6FF" cx="39.5" cy="38.5" r="38.5"></circle>
                    </g>
                    <g id="headphones-copy" transform="translate(25.000000, 23.000000)" fill="#3A337C" fill-rule="nonzero">
                        <path d="M26.4918282,11.6305587 C26.4918282,5.20717883 21.2846494,0 14.8612695,0 C8.43788959,0 3.23071076,5.20717883 3.23071076,11.6305587 C1.57012543,11.8373242 0,12.922843 0,15.4427974 L0,21.5165336 C0,24.3595591 1.99011783,25.3933865 3.87685291,25.3933865 L5.75066515,25.3933865 C6.10749715,25.3933865 6.3968073,25.1040764 6.3968073,24.7472444 L6.3968073,12.2379323 C6.3968073,11.8811003 6.10749715,11.5917902 5.75066515,11.5917902 L4.52299506,11.5917902 C4.52299506,5.88215507 9.15163436,1.25351577 14.8612695,1.25351577 C20.5709046,1.25351577 25.1995439,5.88215507 25.1995439,11.5917902 L23.9718738,11.5917902 C23.6150418,11.5917902 23.3257317,11.8811003 23.3257317,12.2379323 L23.3257317,24.7278601 C23.3257317,25.0846921 23.6150418,25.3740023 23.9718738,25.3740023 L25.1995439,25.3740023 C25.0186241,29.8129989 22.886355,30.8532877 18.6282782,31.0406689 L18.6282782,30.6077537 C18.6282782,29.8940089 18.0497387,29.3154694 17.3359939,29.3154694 L13.2717598,29.3154694 C12.558015,29.3154694 11.9794755,29.8940089 11.9794755,30.6077537 L11.9794755,32.7077157 C11.9794755,33.4214605 12.558015,34 13.2717598,34 L17.3489168,34 C18.0626615,34 18.6412011,33.4214605 18.6412011,32.7077157 L18.6412011,32.3329532 C22.7377423,32.145572 26.2786013,31.2991258 26.4918282,25.3352338 C28.1524135,25.1284683 29.722539,24.0429494 29.722539,21.5229951 L29.722539,15.4492588 C29.722539,12.9163816 28.158875,11.8373242 26.4918282,11.6305587 Z M5.104523,12.8388445 L5.104523,24.081718 L3.8445458,24.081718 C2.88825542,24.081718 1.25997719,23.7457241 1.25997719,21.4971494 L1.25997719,15.4234132 C1.25997719,13.1942227 2.86887115,12.8388445 3.8445458,12.8388445 L5.104523,12.8388445 Z M17.3489168,31.732041 L17.3489168,32.7141771 L13.2717598,32.7141771 L13.2717598,30.6142151 L17.3489168,30.6142151 L17.3489168,31.732041 Z M28.4302547,21.5165336 C28.4302547,23.7457241 26.8213607,24.1011022 25.8456861,24.1011022 L24.618016,24.1011022 L24.618016,12.8840745 L25.8779932,12.8840745 C26.8342835,12.8840745 28.4625618,13.2200684 28.4625618,15.4686431 L28.4302547,21.5165336 Z" id="Shape"></path>
                    </g>
                </g>
            </g>
        </g>
    </g>
</svg>
