<svg width="608.116572px" height="240.707px" viewBox="0 0 608.116572 240.707" version="1.1" xmlns="http://www.w3.org/2000/svg" xmlns:xlink="http://www.w3.org/1999/xlink">
    <title>Footer Background</title>
    <g id="desktop" stroke="none" stroke-width="1" fill="none" fill-rule="evenodd">
        <g id="homepage-2" transform="translate(-923.000000, -5649.000000)" fill="#9FA0A1">
            <g id="Group-3" transform="translate(1.000000, 5172.000000)">
                <g id="Group-17" transform="translate(68.000000, 149.000000)">
                    <g id="Group-54" transform="translate(854.000000, 328.000000)">
                        <path d="M137.422614,54.635344 L166.803468,22.3310566 L166.803468,0.368678678 L21.0005047,0.368678678 L21.0005047,27.8446935 L125.594173,27.8446935 L70.6090567,88.7381217 L106.406338,88.7381217 L116.353573,77.8030176 C147.280042,85.3892904 169.438576,112.654969 169.438576,143.860311 C169.438576,181.465536 137.857466,212.058776 99.0398548,212.058776 C60.222244,212.058776 28.6434973,181.465536 28.6434973,143.860311 L0,143.860311 C0,197.261999 44.428144,240.704637 99.0398548,240.704637 C153.653929,240.704637 198.082073,197.261999 198.082073,143.860311 C198.082073,104.461322 173.456228,69.505384 137.422614,54.635344" id="Fill-70"></path>
                        <path d="M509.074354,47.0136214 C494.180681,47.0136214 479.65805,50.3364561 466.489604,56.4834641 L470.634875,26.2399959 L545.812239,26.2399959 L565.290762,0.0118166243 L446.729844,0.0118166243 L434.86359,89.0477173 L467.200964,89.0477173 C479.223198,80.4310349 493.880539,75.659482 509.074354,75.659482 C547.891965,75.659482 579.473075,106.252722 579.473075,143.860311 C579.473075,181.467899 547.891965,212.061139 509.074354,212.061139 C470.256743,212.061139 438.677997,181.467899 438.677997,143.860311 L410.032136,143.860311 C410.032136,197.261999 454.462643,240.707 509.074354,240.707 C563.686065,240.707 608.116572,197.261999 608.116572,143.860311 C608.116572,90.4586222 563.686065,47.0136214 509.074354,47.0136214" id="Fill-72"></path>
                        <path d="M304.691657,212.061139 C265.874046,212.061139 234.292936,181.467899 234.292936,143.862674 C234.292936,106.252722 265.874046,75.659482 304.691657,75.659482 C343.509268,75.659482 375.088015,106.252722 375.088015,143.862674 C375.088015,181.467899 343.509268,212.061139 304.691657,212.061139 M304.691657,47.0136214 C302.418139,47.0136214 300.170617,47.1176077 297.934911,47.2664971 L341.13649,0 L303.382375,0 L230.816485,79.3935352 C230.823575,79.4029885 230.830665,79.4100785 230.837755,79.4195318 C215.187818,96.5512737 205.649439,119.135206 205.649439,143.862674 C205.649439,197.261999 250.079946,240.707 304.691657,240.707 C359.303368,240.707 403.733875,197.261999 403.733875,143.862674 C403.733875,90.4586222 359.303368,47.0136214 304.691657,47.0136214" id="Fill-74"></path>
                    </g>
                </g>
            </g>
        </g>
    </g>
</svg>
